<?xml version="1.0" standalone="no"?>
<!DOCTYPE svg PUBLIC "-//W3C//DTD SVG 20010904//EN"
 "http://www.w3.org/TR/2001/REC-SVG-20010904/DTD/svg10.dtd">
<svg version="1.0" xmlns="http://www.w3.org/2000/svg"
 width="550.000000pt" height="502.000000pt" viewBox="0 0 550.000000 502.000000"
 preserveAspectRatio="xMidYMid meet">

<g transform="translate(0.000000,502.000000) scale(0.100000,-0.100000)"
fill="#000000" stroke="none">
<path d="M3099 4876 c-98 -40 -159 -96 -206 -186 -25 -50 -28 -64 -28 -160 0
-124 13 -157 100 -262 59 -70 85 -121 85 -162 0 -41 26 -47 191 -44 l152 3 17
63 c13 49 29 75 69 120 29 31 66 86 84 122 30 60 32 73 32 165 0 91 -3 105
-30 158 -43 86 -128 161 -211 187 -90 27 -183 26 -255 -4z m271 -54 c111 -58
171 -152 177 -277 5 -108 -6 -128 -74 -136 -141 -18 -233 -117 -233 -253 l0
-47 -67 3 -66 3 -19 55 c-12 36 -37 77 -73 119 -80 90 -98 130 -103 227 -4 73
-1 88 23 143 33 73 112 151 177 175 66 24 201 17 258 -12z m119 -479 c-8 -10
-33 -40 -56 -66 -35 -40 -60 -89 -79 -154 -2 -7 -17 -13 -34 -13 -29 0 -30 2
-30 45 0 52 21 109 53 144 28 30 93 60 131 61 26 0 27 -2 15 -17z"/>
<path d="M3250 4760 c0 -5 16 -14 36 -19 60 -17 110 -58 135 -112 13 -27 30
-49 38 -49 12 0 12 -3 3 -12 -17 -17 -15 -28 4 -28 13 0 15 7 9 43 -4 23 -13
53 -20 67 -19 37 -70 86 -109 104 -37 18 -96 22 -96 6z"/>
<path d="M3131 4646 c-8 -9 -11 -57 -9 -142 3 -115 5 -129 21 -132 10 -2 64
26 121 62 81 51 103 71 99 84 -2 10 -43 41 -91 69 -128 75 -128 75 -141 59z"/>
<path d="M2305 4435 c-242 -34 -439 -94 -654 -200 -437 -217 -793 -584 -990
-1021 -134 -298 -189 -586 -178 -928 13 -415 125 -769 348 -1101 159 -236 354
-433 581 -585 365 -244 755 -363 1193 -363 471 0 902 144 1281 429 98 73 276
244 359 344 183 221 333 511 404 780 57 218 66 293 66 555 0 328 -27 465 -109
563 -28 33 -92 74 -133 87 -20 5 -23 3 -23 -20 0 -18 7 -28 26 -35 84 -32 141
-124 171 -275 14 -69 18 -141 18 -310 0 -121 -4 -246 -8 -277 l-8 -58 -199 0
c-174 0 -200 -2 -218 -17 -11 -10 -41 -74 -66 -143 -26 -69 -133 -349 -238
-623 l-191 -497 -527 0 c-290 0 -534 -2 -543 -6 -26 -10 -32 -51 -12 -74 17
-19 37 -20 559 -22 l541 -3 -80 -50 c-432 -269 -970 -363 -1485 -259 -191 38
-500 149 -485 174 3 5 13 10 22 10 9 0 170 34 357 76 596 133 529 114 538 152
l9 33 103 -7 c116 -8 156 2 281 64 91 46 128 45 225 -2 41 -20 84 -36 97 -36
26 0 73 20 73 30 0 4 17 11 38 15 20 4 43 11 50 17 14 12 16 58 2 58 -5 0 -10
19 -10 42 0 38 -5 47 -62 100 -35 33 -76 67 -93 76 l-30 17 29 3 c52 6 97 -9
139 -47 100 -89 143 -102 197 -58 15 12 36 27 46 33 18 11 16 16 -28 80 -72
106 -112 139 -183 153 -148 29 -193 30 -350 4 l-150 -25 -245 21 c-382 33
-469 43 -486 55 -18 13 -30 50 -125 361 -137 452 -174 553 -236 646 l-24 37
38 77 c43 87 39 85 145 46 72 -26 133 -27 175 -1 24 14 43 43 78 117 71 153
66 146 109 155 75 16 77 25 45 166 l-22 93 32 82 c21 53 35 107 38 154 l6 72
51 15 c128 38 200 146 194 293 l-3 68 -105 -3 c-124 -3 -139 2 -116 46 9 17
16 43 16 58 0 21 -4 25 -17 19 -85 -32 -163 -24 -336 37 -108 38 -132 43 -212
43 -114 0 -171 -21 -242 -88 -53 -50 -53 -50 -53 -22 0 16 12 43 26 62 41 53
11 89 -34 41 -25 -28 -42 -70 -42 -108 0 -24 -6 -30 -42 -45 -87 -34 -148
-118 -178 -245 -22 -89 -15 -227 19 -405 39 -201 39 -220 0 -298 -44 -87 -97
-167 -110 -167 -21 0 -195 -109 -276 -174 -205 -163 -355 -411 -433 -716 -15
-55 -22 -44 -51 77 -51 214 -72 512 -50 712 77 703 507 1313 1146 1626 301
148 561 205 932 205 l164 0 -3 23 c-3 22 -4 22 -193 23 -107 1 -229 -4 -280
-11z m-51 -1021 c55 -14 128 -29 161 -32 l60 -7 3 -57 c2 -44 -4 -79 -29 -149
-34 -99 -35 -135 -5 -249 8 -30 11 -59 7 -63 -5 -5 -27 -11 -50 -14 -37 -5
-43 -10 -61 -51 -19 -43 -21 -44 -55 -39 -19 3 -47 15 -62 27 -16 12 -30 17
-36 11 -19 -19 0 -47 50 -71 29 -14 53 -31 53 -38 0 -7 -9 -29 -19 -50 -49
-97 -105 -101 -274 -19 -137 65 -189 109 -215 180 -20 53 -52 77 -52 39 0 -54
83 -256 128 -311 l19 -25 -28 -80 c-16 -45 -29 -93 -29 -108 0 -15 -4 -29 -8
-32 -12 -7 -66 27 -147 94 -88 73 -139 127 -204 214 l-51 69 27 46 c15 25 43
76 63 113 30 56 48 76 111 121 41 30 87 57 103 61 34 8 31 18 -14 48 -45 30
-75 101 -66 152 4 20 20 51 36 69 61 68 170 22 170 -73 0 -41 18 -60 58 -60
14 0 22 13 35 59 9 33 23 66 31 74 8 8 33 35 55 61 37 43 41 52 41 101 l0 54
46 -19 c25 -11 92 -32 148 -46z m-844 -846 c87 -129 319 -332 403 -353 25 -7
27 -4 43 54 10 34 20 61 24 61 9 0 58 -108 70 -156 36 -144 29 -492 -15 -794
-14 -96 -28 -199 -32 -228 l-6 -52 -108 0 -107 0 -6 27 c-3 16 -22 172 -42
348 -65 587 -67 597 -133 686 -55 76 -159 134 -251 141 -31 3 -35 0 -35 -22 0
-22 5 -26 47 -31 154 -23 253 -154 273 -364 26 -277 96 -819 107 -832 12 -14
61 -15 476 -9 l462 7 0 -150 c0 -148 0 -151 -22 -156 -54 -13 -530 -119 -722
-161 -166 -36 -214 -43 -237 -35 -37 13 -210 127 -289 190 -33 27 -95 82 -138
122 -74 70 -79 78 -90 134 -29 145 -74 386 -108 580 -37 213 -51 253 -78 225
-13 -13 -9 -45 25 -238 21 -122 52 -291 69 -374 16 -84 28 -153 26 -155 -5 -5
-93 108 -143 182 -66 99 -129 215 -173 317 -47 112 -47 108 6 286 89 295 222
502 421 655 66 51 221 146 238 146 6 0 26 -23 45 -51z m2866 -1070 l7 -51 53
59 c35 39 56 56 62 49 15 -14 -78 -260 -98 -260 -20 0 -18 28 9 95 l21 55 -28
-32 c-35 -40 -50 -42 -58 -5 -3 15 -7 32 -8 37 -2 6 -9 -8 -16 -30 -21 -66
-52 -135 -61 -135 -21 0 -16 27 26 136 63 163 79 177 91 82z m-882 -228 c43
-16 90 -39 104 -52 37 -34 122 -138 122 -149 0 -23 -44 -5 -100 42 -34 28 -74
57 -88 65 -33 17 -94 18 -180 3 -51 -9 -77 -9 -119 2 -49 11 -63 10 -138 -9
-119 -31 -118 -32 -94 27 l20 48 87 7 c48 3 128 15 177 25 121 25 119 25 209
-9z m164 -15 c27 -20 115 -142 110 -154 -1 -5 -41 31 -86 80 -60 64 -78 89
-65 89 10 0 28 -7 41 -15z m-352 -131 c111 -25 112 -26 180 -89 79 -74 74 -86
-9 -21 -44 34 -74 48 -144 65 -82 21 -88 21 -100 5 -18 -25 -9 -31 50 -39 96
-12 126 -25 202 -86 41 -33 75 -65 75 -70 0 -30 -76 5 -185 85 -23 17 -171 50
-185 41 -35 -22 11 -50 92 -58 38 -4 61 -15 112 -53 36 -27 65 -52 66 -56 1
-17 -43 -7 -102 23 -34 17 -84 33 -113 36 -47 5 -63 1 -151 -40 -137 -62 -169
-70 -275 -61 l-89 7 0 114 c0 82 3 115 13 117 6 2 50 10 97 19 47 9 139 32
205 51 66 19 127 35 135 35 8 1 65 -10 126 -25z"/>
<path d="M2190 3231 c-14 -4 -25 -14 -25 -24 0 -21 -1 -21 60 -13 36 5 64 3
95 -8 60 -21 80 -20 80 3 0 38 -130 64 -210 42z"/>
<path d="M2272 3098 c-28 -28 -3 -85 32 -72 18 7 31 46 22 69 -7 18 -37 20
-54 3z"/>
<path d="M3674 4395 c-9 -22 2 -32 47 -39 70 -11 191 -64 252 -110 133 -100
206 -254 207 -432 0 -157 -67 -272 -192 -330 -58 -27 -72 -29 -173 -28 -72 0
-141 8 -200 21 -49 12 -117 24 -150 28 -74 9 -121 28 -158 63 -43 41 -51 60
-57 147 -5 75 -7 80 -29 83 -24 4 -24 4 -19 -85 5 -96 18 -132 68 -181 l30
-30 -34 -21 c-51 -32 -103 -94 -115 -138 -44 -156 49 -308 223 -366 70 -24 98
-23 94 4 -2 17 -15 25 -58 36 -167 42 -262 197 -201 328 35 75 102 115 194
115 29 0 109 -11 178 -24 68 -14 156 -28 194 -31 139 -14 273 32 355 122 64
70 91 142 97 258 9 167 -41 314 -145 427 -74 80 -151 129 -254 161 -113 35
-147 40 -154 22z"/>
<path d="M3073 4009 c-6 -6 -9 -18 -6 -25 4 -11 38 -14 163 -14 125 0 159 3
163 14 12 30 -16 36 -163 36 -95 0 -150 -4 -157 -11z"/>
<path d="M3115 3910 c-4 -6 -1 -18 6 -26 9 -12 33 -14 113 -12 96 3 101 4 104
26 3 22 2 22 -107 22 -65 0 -112 -4 -116 -10z"/>
<path d="M4042 3266 c-5 -6 -20 -42 -35 -81 -14 -38 -60 -160 -101 -269 -42
-110 -76 -203 -76 -208 0 -4 12 -8 28 -8 26 1 30 7 115 238 49 130 97 258 107
283 l19 47 -25 5 c-13 2 -28 -1 -32 -7z"/>
<path d="M3679 3222 c-28 -25 -33 -37 -36 -88 -6 -81 -20 -113 -52 -120 -48
-10 -52 -14 -49 -36 2 -17 11 -24 30 -26 42 -5 64 -42 71 -116 3 -36 12 -74
19 -85 14 -22 49 -41 78 -41 30 0 26 44 -5 58 -26 12 -31 26 -38 106 -3 27
-14 60 -26 77 l-22 29 22 29 c12 17 23 50 26 77 7 80 12 94 38 106 16 7 25 19
25 35 0 33 -41 31 -81 -5z"/>
<path d="M4160 3226 c0 -14 5 -26 10 -26 6 0 19 -9 30 -20 15 -15 20 -33 20
-78 0 -44 6 -66 23 -92 l24 -34 -24 -34 c-17 -26 -23 -49 -23 -88 0 -57 -22
-94 -56 -94 -10 0 -14 -7 -12 -22 2 -19 9 -23 38 -21 52 2 76 36 85 118 7 73
35 115 73 115 20 0 32 24 25 48 -3 6 -16 12 -29 12 -38 0 -64 33 -64 83 0 92
-28 141 -88 153 -29 6 -32 4 -32 -20z"/>
<path d="M2912 2410 c-40 -10 -101 -34 -135 -52 -60 -32 -188 -148 -219 -198
l-15 -24 -68 33 c-65 32 -69 33 -82 15 -8 -11 -11 -30 -7 -49 3 -17 6 -107 7
-200 3 -190 10 -216 80 -283 25 -24 34 -42 35 -69 2 -51 31 -93 81 -120 44
-23 49 -23 362 -23 287 0 323 2 381 20 122 37 234 140 278 257 28 71 37 205
20 286 -29 142 -143 293 -269 357 -98 49 -146 61 -266 66 -89 3 -124 0 -183
-16z m325 -55 c96 -30 178 -83 239 -155 208 -243 131 -605 -147 -691 -54 -17
-96 -19 -377 -19 -296 0 -319 1 -349 20 -32 19 -59 57 -49 67 3 4 23 1 43 -5
42 -12 665 -1 696 12 20 9 23 42 5 49 -7 2 -27 2 -44 0 -72 -11 -170 53 -207
136 -45 101 -15 236 69 310 70 61 156 77 247 44 35 -13 50 -14 58 -6 33 33
-53 73 -155 73 -112 0 -206 -61 -259 -166 l-32 -64 0 122 0 123 -25 -3 c-14
-1 -50 -19 -80 -40 l-56 -38 -109 5 -110 6 75 76 c115 116 236 167 402 168 66
1 106 -5 165 -24z m-736 -255 c39 -29 60 -39 74 -34 43 13 157 16 200 4 44
-12 44 -12 93 29 26 22 52 41 56 41 4 0 6 -44 5 -97 -1 -54 1 -127 6 -163 6
-57 4 -73 -15 -118 -86 -200 -364 -201 -466 -2 -17 34 -18 42 -11 210 1 19 -2
65 -6 103 -6 42 -5 67 1 67 6 0 34 -18 63 -40z m552 -437 l31 -33 -93 0 -93 0
24 33 c14 17 33 47 42 66 l18 33 20 -33 c11 -19 34 -49 51 -66z"/>
<path d="M2507 1837 c-7 -18 2 -31 30 -46 32 -17 60 -14 83 9 27 27 18 40 -28
38 -20 0 -47 2 -58 6 -14 5 -23 3 -27 -7z"/>
<path d="M2723 1834 c-8 -23 30 -54 67 -54 34 0 81 35 73 55 -6 17 -39 20 -49
4 -6 -11 -33 -9 -66 6 -12 5 -20 2 -25 -11z"/>
<path d="M2633 1723 c-4 -11 3 -24 21 -40 25 -22 30 -23 50 -10 11 8 22 26 24
41 3 25 1 26 -43 26 -33 0 -47 -4 -52 -17z"/>
</g>
</svg>
